<svg class="border shadow-md" viewBox="0 0 763.84 763.84" style="width: 763.84px; height: 763.84px;" xmlns="http://www.w3.org/2000/svg" preserveAspectRatio="none"><rect class="bg" id="bg" x="0" y="0" width="763.84" height="763.84" fill="#ffffff"/><g transform="rotate(0 381.92 381.92)"><path d="M -321.28 -65.48 S -258.00 -121.48&#10;            0.00 -65.48 150.64 -113.22&#10;            321.28 -65.48 471.92 -113.22&#10;            642.56 -65.48 698.84 -113.22&#10;            963.84 -65.48 1114.48 -159.48&#10;            1285.12 -65.48 h 110 V 963.84 H -321.28 Z" fill="#6C8480" id="-1"/><path d="M -321.28 30.00 S -170.64 -39.00&#10;            0.00 30.00 150.64 -51.00&#10;            321.28 30.00 370.56 -45.00&#10;            642.56 30.00 793.20 -17.74&#10;            963.84 30.00 1020.12 -19.00&#10;            1285.12 30.00 h 110 V 963.84 H -321.28 Z" fill="#778d8a" id="0"/><path d="M -321.28 125.48 S -189.00 77.74&#10;            0.00 125.48 57.28 77.74&#10;            321.28 125.48 471.92 77.74&#10;            642.56 125.48 793.20 77.74&#10;            963.84 125.48 1114.48 77.74&#10;            1285.12 125.48 h 110 V 963.84 H -321.28 Z" fill="#829694" id="1"/><path d="M -321.28 220.96 S -272.00 173.22&#10;            0.00 220.96 150.64 173.22&#10;            321.28 220.96 358.56 144.96&#10;            642.56 220.96 793.20 167.96&#10;            963.84 220.96 1014.12 173.22&#10;            1285.12 220.96 h 110 V 963.84 H -321.28 Z" fill="#8d9f9e" id="2"/><path d="M -321.28 316.44 S -170.64 268.70&#10;            0.00 316.44 150.64 240.44&#10;            321.28 316.44 349.56 268.70&#10;            642.56 316.44 793.20 244.44&#10;            963.84 316.44 1076.12 233.44&#10;            1285.12 316.44 h 110 V 963.84 H -321.28 Z" fill="#98a8a8" id="3"/><path d="M -321.28 411.92 S -170.64 345.92&#10;            0.00 411.92 150.64 364.18&#10;            321.28 411.92 458.56 340.92&#10;            642.56 411.92 756.84 364.18&#10;            963.84 411.92 1017.12 364.18&#10;            1285.12 411.92 h 110 V 963.84 H -321.28 Z" fill="#a3b1b2" id="4"/><path d="M -321.28 507.40 S -170.64 440.40&#10;            0.00 507.40 72.28 459.66&#10;            321.28 507.40 378.56 445.40&#10;            642.56 507.40 793.20 459.66&#10;            963.84 507.40 1085.12 459.66&#10;            1285.12 507.40 h 110 V 963.84 H -321.28 Z" fill="#aebabc" id="5"/><path d="M -321.28 602.88 S -170.64 528.88&#10;            0.00 602.88 150.64 555.14&#10;            321.28 602.88 471.92 555.14&#10;            642.56 602.88 793.20 550.88&#10;            963.84 602.88 1064.12 509.88&#10;            1285.12 602.88 h 110 V 963.84 H -321.28 Z" fill="#b9c3c6" id="6"/><path d="M -321.28 698.36 S -313.00 626.36&#10;            0.00 698.36 150.64 621.36&#10;            321.28 698.36 471.92 650.62&#10;            642.56 698.36 786.84 619.36&#10;            963.84 698.36 1114.48 610.36&#10;            1285.12 698.36 h 110 V 963.84 H -321.28 Z" fill="#c4ccd0" id="7"/></g></svg>